<?xml version="1.0" standalone="no"?><!DOCTYPE svg PUBLIC "-//W3C//DTD SVG 1.1//EN" "http://www.w3.org/Graphics/SVG/1.1/DTD/svg11.dtd"><svg t="1742665489369" class="icon" viewBox="0 0 1024 1024" version="1.1" xmlns="http://www.w3.org/2000/svg" p-id="4661" xmlns:xlink="http://www.w3.org/1999/xlink" width="200" height="200"><path d="M512 706.286c-177.143 0-297.143-154.286-331.429-200 17.143-28.572 62.858-80 125.715-125.715l-40-40c-91.429 68.572-137.143 148.572-142.857 154.286L112 506.286l11.429 17.143c5.714 11.428 148.571 240 388.571 240 57.143 0 102.857-11.429 148.571-28.572l-45.714-45.714C580.571 700.57 546.286 706.286 512 706.286z m388.571-182.857L912 506.286l-11.429-17.143c-5.714-11.429-148.571-240-388.571-240-51.429 0-102.857 11.428-142.857 28.571l45.714 45.715c28.572-11.429 62.857-17.143 102.857-17.143 177.143 0 297.143 154.285 331.429 200-17.143 22.857-62.857 80-120 125.714l40 40c80-62.857 131.428-142.857 131.428-148.571z" fill="#979797" p-id="4662"></path><path d="M512 649.143c17.143 0 34.286-5.714 51.429-11.429L517.714 592H512c-45.714 0-85.714-40-85.714-85.714v-5.715l-45.715-45.714c-5.714 17.143-11.428 34.286-11.428 51.429 0 80 62.857 142.857 142.857 142.857z m0-228.572c45.714 0 85.714 40 85.714 85.715V512l45.715 45.714c5.714-17.143 11.428-34.285 11.428-51.428 0-80-62.857-142.857-142.857-142.857-17.143 0-34.286 5.714-51.429 11.428L512 420.571zM184.686 223.314l40.4-40.4L835.257 793.03 794.8 833.486 184.686 223.314z" fill="#979797" p-id="4663"></path></svg>