<?xml version="1.0" standalone="no"?><!DOCTYPE svg PUBLIC "-//W3C//DTD SVG 1.1//EN" "http://www.w3.org/Graphics/SVG/1.1/DTD/svg11.dtd"><svg t="1742825826805" class="icon" viewBox="0 0 1024 1024" version="1.1" xmlns="http://www.w3.org/2000/svg" p-id="11264" xmlns:xlink="http://www.w3.org/1999/xlink" width="200" height="200"><path d="M129.024 1001.984c-40.96 0-74.752-36.352-74.752-80.896v-824.32c0-39.936 34.816-74.752 74.752-74.752h706.56c39.936 0 74.752 34.816 74.752 74.752V481.28c0 15.36-9.728 25.088-25.088 25.088S860.16 496.64 860.16 481.28V96.768c0-15.872-8.704-24.576-24.576-24.576h-706.56c-15.872 0-24.576 8.704-24.576 24.576V921.6c0 15.36 8.192 30.72 24.576 30.72h384.512c15.36 0 25.088 9.728 25.088 25.088 0 15.36-9.728 25.088-25.088 25.088H129.024z" p-id="11265"></path><path d="M947.2 1001.984c-4.608 0-15.872 0-20.48-4.608l-152.064-152.064-4.096 2.56c-29.696 19.968-65.024 30.208-101.888 30.208-102.912 0-180.224-77.312-180.224-180.224s77.312-180.224 180.224-180.224 180.224 77.312 180.224 180.224c0 39.936-12.288 77.824-35.328 109.056l-3.072 4.096 151.552 151.552c9.728 9.728 10.24 23.552 1.536 33.792-3.584 0.512-6.144 2.048-9.216 3.584-2.56 1.024-5.12 2.048-7.168 2.048z m-278.528-434.176c-71.68 0-130.048 58.368-130.048 130.048 0 71.68 58.368 130.048 130.048 130.048 71.68 0 129.536-58.368 130.048-130.048-0.512-71.68-58.368-130.048-130.048-130.048zM265.728 443.904c-15.36 0-25.088-9.728-25.088-25.088s9.728-25.088 25.088-25.088h434.176c7.68 0 13.824 2.56 18.432 6.656 4.608 4.608 6.656 10.752 6.656 18.432 0 15.36-9.728 25.088-25.088 25.088H265.728z m0-185.856c-15.36 0-25.088-9.728-25.088-25.088s9.728-25.088 25.088-25.088h434.176c7.68 0 13.824 2.56 18.432 6.656 4.608 4.608 6.656 10.752 6.656 18.432 0 15.36-9.728 25.088-25.088 25.088H265.728z" p-id="11266"></path></svg>